<svg width="34" height="34" viewBox="0 0 34 34" fill="none" xmlns="http://www.w3.org/2000/svg">
<g clip-path="url(#clip0_257_671)">
<path d="M21.2486 26.9168C21.2488 27.6316 20.9788 28.3201 20.4928 28.8443C20.0067 29.3684 19.3405 29.6895 18.6277 29.7431L18.4152 29.7502H15.5819C14.8671 29.7504 14.1786 29.4804 13.6545 28.9944C13.1303 28.5083 12.8093 27.8421 12.7556 27.1293L12.7486 26.9168H21.2486ZM16.9986 2.8335C19.5698 2.83345 22.0405 3.8321 23.8896 5.61877C25.7386 7.40544 26.8214 9.84045 26.9096 12.4102L26.9152 12.7502V18.0825L29.4964 23.2448C29.609 23.4701 29.6654 23.7193 29.6607 23.9711C29.656 24.2229 29.5903 24.4698 29.4693 24.6906C29.3483 24.9115 29.1755 25.0998 28.9658 25.2393C28.7562 25.3788 28.5158 25.4654 28.2653 25.4917L28.1024 25.5002H5.89473C5.6428 25.5002 5.3946 25.4392 5.17141 25.3224C4.94822 25.2055 4.75669 25.0363 4.61324 24.8292C4.46978 24.6221 4.37868 24.3833 4.34774 24.1332C4.31679 23.8832 4.34693 23.6294 4.43556 23.3936L4.50073 23.2448L7.0819 18.0825V12.7502C7.0819 10.1201 8.12669 7.59776 9.98642 5.73802C11.8462 3.87828 14.3685 2.8335 16.9986 2.8335Z" fill="black"/>
<circle cx="23.5" cy="4.5" r="4.5" fill="#FF0000"/>
</g>
<defs>
<clipPath id="clip0_257_671">
<rect width="34" height="34" fill="white"/>
</clipPath>
</defs>
</svg>
