<svg width="58" height="58" viewBox="0 0 58 58" fill="none" xmlns="http://www.w3.org/2000/svg">
<circle cx="28.5283" cy="28.5283" r="28.0283" fill="white" stroke="black"/>
<rect width="34.4493" height="34.4493" transform="translate(11.8438 11.8418)" fill="white"/>
<path d="M29.0669 29.0667C31.0655 29.0667 32.9823 28.2727 34.3955 26.8595C35.8087 25.4463 36.6027 23.5295 36.6027 21.5309C36.6027 19.5323 35.8087 17.6155 34.3955 16.2023C32.9823 14.7891 31.0655 13.9951 29.0669 13.9951C27.0683 13.9951 25.1515 14.7891 23.7383 16.2023C22.3251 17.6155 21.5311 19.5323 21.5311 21.5309C21.5311 23.5295 22.3251 25.4463 23.7383 26.8595C25.1515 28.2727 27.0683 29.0667 29.0669 29.0667ZM19.9163 31.2198C18.917 31.2198 17.9586 31.6167 17.252 32.3233C16.5454 33.03 16.1484 33.9883 16.1484 34.9876V35.5259C16.1484 38.1021 17.788 40.281 20.1155 41.7623C22.4559 43.2522 25.6241 44.1382 29.0669 44.1382C32.5097 44.1382 35.6769 43.2522 38.0183 41.7623C40.3458 40.281 41.9854 38.1021 41.9854 35.5259V34.9876C41.9854 33.9883 41.5884 33.03 40.8818 32.3233C40.1752 31.6167 39.2168 31.2198 38.2175 31.2198H19.9163Z" fill="black"/>
</svg>
